<?xml version="1.0" encoding="utf-8"?>
<!-- Generator: Adobe Illustrator 18.1.1, SVG Export Plug-In . SVG Version: 6.00 Build 0)  -->
<svg version="1.1" id="Layer_1" xmlns="http://www.w3.org/2000/svg" xmlns:xlink="http://www.w3.org/1999/xlink" x="0px" y="0px"
	 viewBox="0 0 200 200" enable-background="new 0 0 200 200" xml:space="preserve">
<path fill="#EDEBE3" d="M59.5,142.6c-0.4-10.6,2.8-18.7,12.6-22.6c4.7-1.9,9.4-3.5,14.1-5.2c1.3-0.5,2.6-0.9,3.8-1.6
	c2.5-1.4,3-4.3,1.6-6.7c-5.8-9.6-8.6-19.8-6.4-31c1-5.3,4.4-9,9.8-9.9c4-0.6,8.2-0.9,12.1-0.2c7.2,1.3,11,6.6,11.2,15
	c0.2,9.1-2.1,17.6-6.7,25.4c-1.8,3-0.9,6.5,2.3,7.9c3.7,1.6,7.5,2.7,11.3,4.1c2.6,1,5.2,2.2,7.7,3.3c6.6,3,9.6,8.4,10.5,15.3
	c0.3,2,0.4,4.1,0.6,6.3C115.7,142.6,87.6,142.6,59.5,142.6z"/>
<path fill="#EDEBE3" d="M154,121.7c-4,0-8.1,0-12.2,0c-0.4,0-0.9-0.2-1.2-0.4c-6.1-4.9-13.5-7.2-20.7-9.6c-5.7-1.9-5.6-1.8-3.1-7.1
	c4.4-9.4,6.9-19.2,4.7-29.7c-0.9-4-2.9-7.4-6.1-10.1c9.6-5.4,19.8,0.3,19.8,11c0,6.3-1.6,12.1-4.7,17.6c-1.9,3.3-1.1,5.6,2.4,7
	c4,1.6,8.1,3,12.2,4.6C152,107.5,154.9,113.9,154,121.7z"/>
<path fill="#EDEBE3" d="M88.4,109.6c-1.9,0.7-3.7,1.4-5.5,2c-7.2,2.5-14.5,4.6-20.4,9.6c-0.3,0.2-0.8,0.4-1.2,0.4
	c-4.1,0-8.2,0-12.2,0c-1.1-7,1.9-13.4,7.8-16.3c3.7-1.8,7.6-3,11.4-4.5c1.2-0.5,2.4-0.8,3.5-1.5c1.9-1.1,2.3-3.1,1.1-5
	c-3.6-5.8-5.4-12.1-5.3-18.9c0.1-8.4,4.3-12.6,12.7-12.5c2.2,0,4.5,0.6,7.1,1c-1.6,2-2.9,3.4-3.9,5c-3.6,5.7-3.6,12-2.8,18.3
	c0.9,7.4,3.2,14.5,7.1,20.9C88,108.5,88.1,108.9,88.4,109.6z"/>
</svg>
