<?xml version="1.0" encoding="utf-8"?>
<!-- Generator: Adobe Illustrator 18.1.1, SVG Export Plug-In . SVG Version: 6.00 Build 0)  -->
<svg version="1.1" id="Layer_1" xmlns="http://www.w3.org/2000/svg" xmlns:xlink="http://www.w3.org/1999/xlink" x="0px" y="0px"
	 viewBox="0 0 200 200" enable-background="new 0 0 200 200" xml:space="preserve">
<g>
	<path fill="#F05E60" d="M0.8,54.6c0-0.9,0.8-1.8,1.8-1.8h2.9c0.9,0,1.8,0.8,1.8,1.8V82c0,0,3.8-2.4,9.9-2.4
		c11.1,0,17.7,8.5,17.7,19.3c0,10.6-7.4,19.4-16.8,19.4c-6.9,0-11.3-4.9-11.3-4.9L6,115.9c-0.2,0.8-0.7,1.5-1.6,1.5H2.5
		c-0.9,0-1.8-0.8-1.8-1.8L0.8,54.6L0.8,54.6z M17.3,112.4c6.7,0,11-6.4,11-13.5c0-7.4-4.1-13.2-12.1-13.2c-5.1,0-8.9,2.2-8.9,2.2
		v18.4C7.2,106.4,10.6,112.4,17.3,112.4z"/>
	<path fill="#F05E60" d="M54.3,79.5c10.2,0,18.3,8.8,18.3,19.3c0,10.6-8.1,19.4-18.3,19.4S36,109.4,36,98.8
		C36,88.4,44.1,79.5,54.3,79.5z M54.3,112.3c6.7,0,12-6,12-13.5c0-7.3-5.3-13.2-12-13.2s-12,5.9-12,13.2
		C42.3,106.3,47.6,112.3,54.3,112.3z"/>
	<path fill="#F05E60" d="M92.3,79.5c10.2,0,18.3,8.8,18.3,19.3c0,10.6-8.1,19.4-18.3,19.4S74,109.4,74,98.8
		C73.9,88.4,82.1,79.5,92.3,79.5z M92.3,112.3c6.7,0,12-6,12-13.5c0-7.3-5.3-13.2-12-13.2s-12,5.9-12,13.2
		C80.3,106.3,85.6,112.3,92.3,112.3z"/>
	<path fill="#F05E60" d="M112.4,54.6c0-0.9,0.8-1.8,1.8-1.8h2.9c0.9,0,1.8,0.8,1.8,1.8v39.9l15.7-12.9c0.7-0.6,1.5-1.1,2.2-1.1h5
		c1.6,0,1.5,1.8,0.8,2.3l-17.5,14l20.4,18.3c0.7,0.6,0.6,2.3-0.9,2.3h-5.1c-0.8,0-1.5-0.5-1.8-0.7L119,98.9v16.8
		c0,0.9-0.8,1.8-1.8,1.8h-2.9c-0.9,0-1.8-0.8-1.8-1.8L112.4,54.6L112.4,54.6z"/>
	<path fill="#F05E60" d="M157.6,79.5c9.7,0,16.7,7.2,16.7,16.9c0,0.6-0.1,1.8-0.2,2.5c-0.1,0.9-0.8,1.6-1.7,1.6h-26.5
		c0.4,6.2,5.8,12,12.4,12c3.9,0,7-1.5,9.1-2.8c1.3-0.7,1.8-1.2,2.6-0.2c0.6,0.7,1,1.4,1.6,2.1c0.6,0.8,1,1.4-0.4,2.4
		c-2.2,1.8-7.2,4.2-13.5,4.2c-11.2,0-18.1-8.8-18.1-19.4C139.6,88.5,146.5,79.5,157.6,79.5z M168,95.3c-0.3-5.3-4.7-10.1-10.3-10.1
		c-6.2,0-11,4.4-11.6,10.1H168z"/>
	<path fill="#F05E60" d="M179.8,86h-4.7c-1,0-1.8-0.8-1.8-1.8v-2c0-1,0.7-1.8,1.8-1.8h4.7V70.2c0-0.9,0.8-1.8,1.8-1.8l3-0.2
		c0.9,0,1.7,0.8,1.7,1.8v10.4H197c1,0,1.8,0.7,1.8,1.8v2c0,0.9-0.7,1.8-1.8,1.8h-10.7v21.6c0,3.7,0.9,4.4,3,4.4c2.3,0,5.5-1.4,6.7-2
		c1.4-0.7,1.8-0.2,2.2,0.6l1.4,2.3c0.6,1.1,0.4,1.7-0.6,2.3c-1.3,0.8-6.3,3.1-10.6,3.1c-7.4,0-8.5-4.4-8.5-10.1L179.8,86L179.8,86z"
		/>
</g>
<g>
	<path fill="#FFFFFF" d="M0.1,53.6c0-0.9,0.8-1.8,1.8-1.8h2.9c0.9,0,1.8,0.8,1.8,1.8V81c0,0,3.8-2.4,9.9-2.4
		c11.1,0,17.7,8.5,17.7,19.3c0,10.6-7.4,19.4-16.8,19.4c-6.9,0-11.3-4.9-11.3-4.9l-0.6,2.5c-0.2,0.8-0.7,1.5-1.6,1.5h-2
		c-0.9,0-1.8-0.8-1.8-1.8C0.1,114.6,0.1,53.6,0.1,53.6z M16.6,111.5c6.7,0,11-6.4,11-13.5c0-7.4-4.1-13.2-12.1-13.2
		c-5.1,0-8.9,2.2-8.9,2.2v18.4C6.6,105.4,10,111.5,16.6,111.5z"/>
	<path fill="#FFFFFF" d="M53.7,78.6c10.2,0,18.3,8.8,18.3,19.3c0,10.6-8.1,19.4-18.3,19.4s-18.3-8.8-18.3-19.4
		C35.3,87.4,43.4,78.6,53.7,78.6z M53.7,111.3c6.7,0,12-6,12-13.5c0-7.3-5.3-13.2-12-13.2s-12,5.9-12,13.2
		C41.7,105.3,46.9,111.3,53.7,111.3z"/>
	<path fill="#FFFFFF" d="M91.6,78.6c10.2,0,18.3,8.8,18.3,19.3c0,10.6-8.1,19.4-18.3,19.4s-18.3-8.8-18.3-19.4
		C73.3,87.4,81.4,78.6,91.6,78.6z M91.6,111.3c6.7,0,12-6,12-13.5c0-7.3-5.3-13.2-12-13.2s-12,5.9-12,13.2
		C79.7,105.3,84.9,111.3,91.6,111.3z"/>
	<path fill="#FFFFFF" d="M111.7,53.6c0-0.9,0.8-1.8,1.8-1.8h2.9c0.9,0,1.8,0.8,1.8,1.8v39.9l15.7-12.9c0.7-0.6,1.5-1.1,2.2-1.1h5
		c1.6,0,1.5,1.8,0.8,2.3l-17.5,14l20.4,18.3c0.7,0.6,0.6,2.3-0.9,2.3h-5.1c-0.8,0-1.5-0.5-1.8-0.7l-18.7-17.8v16.8
		c0,0.9-0.8,1.8-1.8,1.8h-2.9c-0.9,0-1.8-0.8-1.8-1.8L111.7,53.6L111.7,53.6z"/>
	<path fill="#FFFFFF" d="M157,78.6c9.7,0,16.7,7.2,16.7,16.9c0,0.6-0.1,1.8-0.2,2.5c-0.1,0.9-0.8,1.6-1.7,1.6h-26.5
		c0.4,6.2,5.8,12,12.4,12c3.9,0,7-1.5,9.1-2.8c1.3-0.7,1.8-1.2,2.6-0.2c0.6,0.7,1,1.4,1.6,2.1c0.6,0.8,1,1.4-0.4,2.4
		c-2.2,1.8-7.2,4.2-13.5,4.2c-11.2,0-18.1-8.8-18.1-19.4C138.9,87.5,145.8,78.6,157,78.6z M167.3,94.3C167,89,162.6,84.2,157,84.2
		c-6.2,0-11,4.4-11.6,10.1C145.4,94.3,167.3,94.3,167.3,94.3z"/>
	<path fill="#FFFFFF" d="M179.2,85h-4.7c-1,0-1.8-0.8-1.8-1.8v-2c0-1,0.7-1.8,1.8-1.8h4.7V69.3c0-0.9,0.8-1.8,1.8-1.8l3-0.2
		c0.9,0,1.7,0.8,1.7,1.8v10.4h10.7c1,0,1.8,0.7,1.8,1.8v2c0,0.9-0.7,1.8-1.8,1.8h-10.7v21.6c0,3.7,0.9,4.4,3,4.4
		c2.3,0,5.5-1.4,6.7-2c1.4-0.7,1.8-0.2,2.2,0.6l1.4,2.3c0.6,1.1,0.4,1.7-0.6,2.3c-1.3,0.8-6.3,3.1-10.6,3.1c-7.4,0-8.5-4.4-8.5-10.1
		L179.2,85L179.2,85z"/>
</g>
</svg>
